<?xml version="1.0" encoding="UTF-8"?>
<svg width="32px" height="32px" viewBox="0 0 32 32" version="1.1" xmlns="http://www.w3.org/2000/svg" xmlns:xlink="http://www.w3.org/1999/xlink">
    <title>32x32@2x</title>
    <g id="32x32" stroke="none" stroke-width="1" fill="none" fill-rule="evenodd">
        <path d="M24.0280762,18.0427246 C23.5244906,12.4499907 18.710548,7.98486667 12.9867104,7.98486667 C8.24947638,7.98486667 4.59692383,10.6222353 2.02905273,15.8969727 C2.02905273,6.84228516 7.82007299,2 14.9816659,2 C22.1432589,2 27.9833358,8.03891497 27.9833358,15.2005079 C27.8248012,18.5291679 27.4334161,20.6168252 26.8091808,21.46348 C26.1849454,22.3101347 25.285824,23.0080177 24.1118164,23.5571289 L24.0280762,18.0427246 Z" id="Path" fill="#000000"></path>
        <path d="M2.01445482,21.9495556 C2.01445482,16.4406379 6.35265461,11.9790039 11.8615723,11.9790039 C18.166748,11.8129883 21.9640104,16.4406379 21.9640104,21.9495556 L21.9640104,22.9445111 C19.4445898,18.6360643 16.1871364,16.4892774 12.1916504,16.5041504 C8.02268656,16.5196692 4.63028803,18.3348042 2.01445482,21.9495556 Z" id="Path" fill="#000000" fill-rule="nonzero"></path>
        <path d="M11.7155762,19.9387709 C18.5024473,19.9489216 17.9783574,26.1311127 23.8962402,26.1740723 C27.2929128,26.1740723 29.2712741,24.9437543 29.8313241,22.4831185 C30.3373688,25.5296144 29.1897571,30 22.9758561,30 C16.0961832,29.950173 16.6524842,23.9867603 11.7321777,23.9183322 C8.62207026,23.9004201 6.48663211,25.4916943 5.20009034,27.9276733 L1.98547189,27.8969194 C2.10845542,24.0628642 6.40110613,19.9081429 11.7155762,19.9387709 Z" id="Path" fill="#000000" fill-rule="nonzero"></path>
    </g>
</svg>